<mxfile host="Electron" agent="Mozilla/5.0 (Windows NT 10.0; Win64; x64) AppleWebKit/537.36 (KHTML, like Gecko) draw.io/26.0.16 Chrome/132.0.6834.196 Electron/34.2.0 Safari/537.36" version="26.0.16">
  <diagram name="Страница — 1" id="9vtJU-iHYAu7Qe4TZaTC">
    <mxGraphModel dx="2772" dy="1955" grid="1" gridSize="10" guides="1" tooltips="1" connect="1" arrows="1" fold="1" page="1" pageScale="1" pageWidth="827" pageHeight="1169" math="0" shadow="0">
      <root>
        <mxCell id="0" />
        <mxCell id="1" parent="0" />
        <mxCell id="27JABKe4xjO0IqMqAIFX-33" style="edgeStyle=orthogonalEdgeStyle;rounded=0;orthogonalLoop=1;jettySize=auto;html=1;" edge="1" parent="1" source="27JABKe4xjO0IqMqAIFX-1">
          <mxGeometry relative="1" as="geometry">
            <mxPoint x="690" y="990" as="targetPoint" />
            <Array as="points" />
          </mxGeometry>
        </mxCell>
        <mxCell id="27JABKe4xjO0IqMqAIFX-34" value="&lt;font style=&quot;text-wrap-mode: wrap; background-color: rgb(251, 251, 251);&quot;&gt;Обрабатывает заявки переданные из отделения банка&lt;/font&gt;&lt;div&gt;&lt;font style=&quot;text-wrap-mode: wrap; background-color: rgb(251, 251, 251); font-size: 17px;&quot;&gt;&lt;br&gt;&lt;/font&gt;&lt;/div&gt;" style="edgeLabel;html=1;align=center;verticalAlign=middle;resizable=0;points=[];" vertex="1" connectable="0" parent="27JABKe4xjO0IqMqAIFX-33">
          <mxGeometry x="-0.4793" y="-1" relative="1" as="geometry">
            <mxPoint x="241" y="-51" as="offset" />
          </mxGeometry>
        </mxCell>
        <object placeholders="1" c4Name="Сотрудники отдела бэк-офис" c4Type="Person" c4Description="" label="&lt;font style=&quot;font-size: 16px&quot;&gt;&lt;b&gt;%c4Name%&lt;/b&gt;&lt;/font&gt;&lt;div&gt;[%c4Type%]&lt;/div&gt;&lt;br&gt;&lt;div&gt;&lt;font style=&quot;font-size: 11px&quot;&gt;&lt;font color=&quot;#cccccc&quot;&gt;%c4Description%&lt;/font&gt;&lt;/div&gt;" id="27JABKe4xjO0IqMqAIFX-1">
          <mxCell style="html=1;fontSize=11;dashed=0;whiteSpace=wrap;fillColor=#083F75;strokeColor=#06315C;fontColor=#ffffff;shape=mxgraph.c4.person2;align=center;metaEdit=1;points=[[0.5,0,0],[1,0.5,0],[1,0.75,0],[0.75,1,0],[0.5,1,0],[0.25,1,0],[0,0.75,0],[0,0.5,0]];resizable=0;" vertex="1" parent="1">
            <mxGeometry x="30" y="900" width="200" height="180" as="geometry" />
          </mxCell>
        </object>
        <object placeholders="1" c4Name="Сотрудники отделения банка" c4Type="Person" c4Description="" label="&lt;font style=&quot;font-size: 16px&quot;&gt;&lt;b&gt;%c4Name%&lt;/b&gt;&lt;/font&gt;&lt;div&gt;[%c4Type%]&lt;/div&gt;&lt;br&gt;&lt;div&gt;&lt;font style=&quot;font-size: 11px&quot;&gt;&lt;font color=&quot;#cccccc&quot;&gt;%c4Description%&lt;/font&gt;&lt;/div&gt;" id="27JABKe4xjO0IqMqAIFX-2">
          <mxCell style="html=1;fontSize=11;dashed=0;whiteSpace=wrap;fillColor=#083F75;strokeColor=#06315C;fontColor=#ffffff;shape=mxgraph.c4.person2;align=center;metaEdit=1;points=[[0.5,0,0],[1,0.5,0],[1,0.75,0],[0.75,1,0],[0.5,1,0],[0.25,1,0],[0,0.75,0],[0,0.5,0]];resizable=0;" vertex="1" parent="1">
            <mxGeometry x="30" y="340" width="200" height="180" as="geometry" />
          </mxCell>
        </object>
        <mxCell id="27JABKe4xjO0IqMqAIFX-27" style="edgeStyle=orthogonalEdgeStyle;rounded=0;orthogonalLoop=1;jettySize=auto;html=1;entryX=0;entryY=0.5;entryDx=0;entryDy=0;" edge="1" parent="1" source="27JABKe4xjO0IqMqAIFX-3" target="27JABKe4xjO0IqMqAIFX-19">
          <mxGeometry relative="1" as="geometry" />
        </mxCell>
        <mxCell id="27JABKe4xjO0IqMqAIFX-28" value="Text" style="edgeLabel;html=1;align=center;verticalAlign=middle;resizable=0;points=[];" vertex="1" connectable="0" parent="27JABKe4xjO0IqMqAIFX-27">
          <mxGeometry x="-0.0792" relative="1" as="geometry">
            <mxPoint as="offset" />
          </mxGeometry>
        </mxCell>
        <mxCell id="27JABKe4xjO0IqMqAIFX-29" value="&lt;span style=&quot;text-wrap-mode: wrap; background-color: rgb(251, 251, 251);&quot;&gt;&lt;font&gt;Заводит заявку в системе для бэк-офис&lt;/font&gt;&lt;/span&gt;" style="edgeLabel;html=1;align=center;verticalAlign=middle;resizable=0;points=[];" vertex="1" connectable="0" parent="27JABKe4xjO0IqMqAIFX-27">
          <mxGeometry x="-0.0792" y="-2" relative="1" as="geometry">
            <mxPoint x="7" y="14" as="offset" />
          </mxGeometry>
        </mxCell>
        <object placeholders="1" c4Name="Сотрудники кол-центра" c4Type="Person" c4Description="" label="&lt;font style=&quot;font-size: 16px&quot;&gt;&lt;b&gt;%c4Name%&lt;/b&gt;&lt;/font&gt;&lt;div&gt;[%c4Type%]&lt;/div&gt;&lt;br&gt;&lt;div&gt;&lt;font style=&quot;font-size: 11px&quot;&gt;&lt;font color=&quot;#cccccc&quot;&gt;%c4Description%&lt;/font&gt;&lt;/div&gt;" id="27JABKe4xjO0IqMqAIFX-3">
          <mxCell style="html=1;fontSize=11;dashed=0;whiteSpace=wrap;fillColor=#083F75;strokeColor=#06315C;fontColor=#ffffff;shape=mxgraph.c4.person2;align=center;metaEdit=1;points=[[0.5,0,0],[1,0.5,0],[1,0.75,0],[0.75,1,0],[0.5,1,0],[0.25,1,0],[0,0.75,0],[0,0.5,0]];resizable=0;" vertex="1" parent="1">
            <mxGeometry x="30" y="574" width="200" height="180" as="geometry" />
          </mxCell>
        </object>
        <mxCell id="27JABKe4xjO0IqMqAIFX-42" style="edgeStyle=orthogonalEdgeStyle;rounded=0;orthogonalLoop=1;jettySize=auto;html=1;entryX=0;entryY=0.5;entryDx=0;entryDy=0;exitX=1;exitY=0.829;exitDx=0;exitDy=0;exitPerimeter=0;" edge="1" parent="1" source="27JABKe4xjO0IqMqAIFX-5" target="27JABKe4xjO0IqMqAIFX-22">
          <mxGeometry relative="1" as="geometry" />
        </mxCell>
        <mxCell id="27JABKe4xjO0IqMqAIFX-43" value="&lt;span style=&quot;text-wrap-mode: wrap; background-color: rgb(251, 251, 251);&quot;&gt;&lt;font&gt;Расчет ставки депозита на основе ставки рефинансирования&lt;/font&gt;&lt;/span&gt;" style="edgeLabel;html=1;align=center;verticalAlign=middle;resizable=0;points=[];" vertex="1" connectable="0" parent="27JABKe4xjO0IqMqAIFX-42">
          <mxGeometry x="-0.087" y="-3" relative="1" as="geometry">
            <mxPoint x="-64" y="-33" as="offset" />
          </mxGeometry>
        </mxCell>
        <mxCell id="27JABKe4xjO0IqMqAIFX-48" value="&lt;span style=&quot;text-wrap-mode: wrap; background-color: rgb(251, 251, 251);&quot;&gt;&lt;font&gt;Расчет уровня риска на основе данных клиента&lt;/font&gt;&lt;/span&gt;" style="edgeLabel;html=1;align=center;verticalAlign=middle;resizable=0;points=[];" vertex="1" connectable="0" parent="27JABKe4xjO0IqMqAIFX-42">
          <mxGeometry x="-0.087" y="-3" relative="1" as="geometry">
            <mxPoint x="-21" y="-162" as="offset" />
          </mxGeometry>
        </mxCell>
        <mxCell id="27JABKe4xjO0IqMqAIFX-61" style="edgeStyle=orthogonalEdgeStyle;rounded=0;orthogonalLoop=1;jettySize=auto;html=1;entryX=0.595;entryY=1.008;entryDx=0;entryDy=0;entryPerimeter=0;" edge="1" parent="1" source="27JABKe4xjO0IqMqAIFX-5" target="27JABKe4xjO0IqMqAIFX-21">
          <mxGeometry relative="1" as="geometry">
            <mxPoint x="-230" y="1130.0000000000005" as="targetPoint" />
          </mxGeometry>
        </mxCell>
        <object placeholders="1" c4Name="Сотрудники отдела кредитования" c4Type="Person" c4Description="" label="&lt;font style=&quot;font-size: 16px&quot;&gt;&lt;b&gt;%c4Name%&lt;/b&gt;&lt;/font&gt;&lt;div&gt;[%c4Type%]&lt;/div&gt;&lt;br&gt;&lt;div&gt;&lt;font style=&quot;font-size: 11px&quot;&gt;&lt;font color=&quot;#cccccc&quot;&gt;%c4Description%&lt;/font&gt;&lt;/div&gt;" id="27JABKe4xjO0IqMqAIFX-5">
          <mxCell style="html=1;fontSize=11;dashed=0;whiteSpace=wrap;fillColor=#083F75;strokeColor=#06315C;fontColor=#ffffff;shape=mxgraph.c4.person2;align=center;metaEdit=1;points=[[0.5,0,0],[1,0.5,0],[1,0.75,0],[0.75,1,0],[0.5,1,0],[0.25,1,0],[0,0.75,0],[0,0.5,0]];resizable=0;" vertex="1" parent="1">
            <mxGeometry x="30" y="1300" width="200" height="180" as="geometry" />
          </mxCell>
        </object>
        <mxCell id="27JABKe4xjO0IqMqAIFX-30" style="edgeStyle=orthogonalEdgeStyle;rounded=0;orthogonalLoop=1;jettySize=auto;html=1;" edge="1" parent="1" source="27JABKe4xjO0IqMqAIFX-19">
          <mxGeometry relative="1" as="geometry">
            <mxPoint x="690" y="812.0000000000005" as="targetPoint" />
          </mxGeometry>
        </mxCell>
        <mxCell id="27JABKe4xjO0IqMqAIFX-31" value="Заявка передается в АБС" style="edgeLabel;html=1;align=center;verticalAlign=middle;resizable=0;points=[];" vertex="1" connectable="0" parent="27JABKe4xjO0IqMqAIFX-30">
          <mxGeometry x="-0.0029" y="3" relative="1" as="geometry">
            <mxPoint x="-9" y="-10" as="offset" />
          </mxGeometry>
        </mxCell>
        <mxCell id="27JABKe4xjO0IqMqAIFX-19" value="&lt;font style=&quot;font-size: 17px;&quot;&gt;Система кол-центра&lt;/font&gt;" style="rounded=1;whiteSpace=wrap;html=1;fillColor=#23A1D8;" vertex="1" parent="1">
          <mxGeometry x="404" y="770" width="126" height="84" as="geometry" />
        </mxCell>
        <mxCell id="27JABKe4xjO0IqMqAIFX-20" value="&lt;div&gt;&lt;font style=&quot;font-size: 17px;&quot;&gt;АБС&lt;/font&gt;&lt;/div&gt;" style="rounded=1;whiteSpace=wrap;html=1;fillColor=#23A1D8;" vertex="1" parent="1">
          <mxGeometry x="693" y="380" width="297" height="860" as="geometry" />
        </mxCell>
        <mxCell id="27JABKe4xjO0IqMqAIFX-21" value="&lt;span style=&quot;font-size: 17px;&quot;&gt;Электронная почта&lt;/span&gt;" style="rounded=1;whiteSpace=wrap;html=1;fillColor=#23A1D8;" vertex="1" parent="1">
          <mxGeometry x="-430" y="720" width="260" height="400" as="geometry" />
        </mxCell>
        <mxCell id="27JABKe4xjO0IqMqAIFX-22" value="&lt;span style=&quot;font-size: 17px;&quot;&gt;Excel&lt;/span&gt;" style="rounded=1;whiteSpace=wrap;html=1;fillColor=#23A1D8;" vertex="1" parent="1">
          <mxGeometry x="693" y="1330" width="290" height="240" as="geometry" />
        </mxCell>
        <mxCell id="27JABKe4xjO0IqMqAIFX-25" style="edgeStyle=orthogonalEdgeStyle;rounded=0;orthogonalLoop=1;jettySize=auto;html=1;" edge="1" parent="1" source="27JABKe4xjO0IqMqAIFX-2" target="27JABKe4xjO0IqMqAIFX-20">
          <mxGeometry relative="1" as="geometry">
            <mxPoint x="670" y="572" as="targetPoint" />
            <Array as="points">
              <mxPoint x="330" y="430" />
              <mxPoint x="330" y="577" />
            </Array>
          </mxGeometry>
        </mxCell>
        <mxCell id="27JABKe4xjO0IqMqAIFX-26" value="&lt;span style=&quot;text-wrap-mode: wrap; background-color: rgb(251, 251, 251);&quot;&gt;&lt;font&gt;Открывает депозиты клиенту по подтвержденной ставке&lt;/font&gt;&lt;/span&gt;" style="edgeLabel;html=1;align=center;verticalAlign=middle;resizable=0;points=[];" vertex="1" connectable="0" parent="27JABKe4xjO0IqMqAIFX-25">
          <mxGeometry x="0.3417" relative="1" as="geometry">
            <mxPoint x="-12" y="-47" as="offset" />
          </mxGeometry>
        </mxCell>
        <mxCell id="27JABKe4xjO0IqMqAIFX-35" style="edgeStyle=orthogonalEdgeStyle;rounded=0;orthogonalLoop=1;jettySize=auto;html=1;" edge="1" parent="1" target="27JABKe4xjO0IqMqAIFX-20">
          <mxGeometry relative="1" as="geometry">
            <mxPoint x="210" y="990" as="sourcePoint" />
            <mxPoint x="672.076" y="1119.44" as="targetPoint" />
            <Array as="points">
              <mxPoint x="300" y="990" />
              <mxPoint x="300" y="1080" />
            </Array>
          </mxGeometry>
        </mxCell>
        <mxCell id="27JABKe4xjO0IqMqAIFX-36" value="&lt;font style=&quot;text-wrap-mode: wrap; background-color: rgb(251, 251, 251);&quot;&gt;Обрабатывает заявки переданные из кол-центра&lt;/font&gt;" style="edgeLabel;html=1;align=center;verticalAlign=middle;resizable=0;points=[];" vertex="1" connectable="0" parent="27JABKe4xjO0IqMqAIFX-35">
          <mxGeometry x="0.4732" relative="1" as="geometry">
            <mxPoint x="57" y="-39" as="offset" />
          </mxGeometry>
        </mxCell>
        <mxCell id="27JABKe4xjO0IqMqAIFX-40" value="&lt;font style=&quot;text-wrap-mode: wrap; background-color: rgb(251, 251, 251);&quot;&gt;Отправляет оповещение с информацией о ставке&lt;/font&gt;" style="edgeLabel;html=1;align=center;verticalAlign=middle;resizable=0;points=[];" vertex="1" connectable="0" parent="27JABKe4xjO0IqMqAIFX-35">
          <mxGeometry x="0.4732" relative="1" as="geometry">
            <mxPoint x="57" y="50" as="offset" />
          </mxGeometry>
        </mxCell>
        <mxCell id="27JABKe4xjO0IqMqAIFX-38" style="edgeStyle=orthogonalEdgeStyle;rounded=0;orthogonalLoop=1;jettySize=auto;html=1;" edge="1" parent="1" source="27JABKe4xjO0IqMqAIFX-1">
          <mxGeometry relative="1" as="geometry">
            <mxPoint x="694" y="1169" as="targetPoint" />
            <Array as="points">
              <mxPoint x="300" y="990" />
              <mxPoint x="300" y="1169" />
            </Array>
          </mxGeometry>
        </mxCell>
        <mxCell id="27JABKe4xjO0IqMqAIFX-46" style="edgeStyle=orthogonalEdgeStyle;rounded=0;orthogonalLoop=1;jettySize=auto;html=1;entryX=0.003;entryY=0.94;entryDx=0;entryDy=0;entryPerimeter=0;exitX=0.7;exitY=0.269;exitDx=0;exitDy=0;exitPerimeter=0;" edge="1" parent="1" source="27JABKe4xjO0IqMqAIFX-5" target="27JABKe4xjO0IqMqAIFX-20">
          <mxGeometry relative="1" as="geometry">
            <Array as="points">
              <mxPoint x="174" y="1348" />
              <mxPoint x="174" y="1350" />
              <mxPoint x="462" y="1350" />
              <mxPoint x="462" y="1188" />
            </Array>
          </mxGeometry>
        </mxCell>
        <mxCell id="27JABKe4xjO0IqMqAIFX-47" value="&lt;div&gt;&lt;br&gt;&lt;/div&gt;" style="edgeLabel;html=1;align=center;verticalAlign=middle;resizable=0;points=[];" vertex="1" connectable="0" parent="27JABKe4xjO0IqMqAIFX-46">
          <mxGeometry x="-0.4662" y="4" relative="1" as="geometry">
            <mxPoint y="-1" as="offset" />
          </mxGeometry>
        </mxCell>
        <mxCell id="27JABKe4xjO0IqMqAIFX-49" style="edgeStyle=orthogonalEdgeStyle;rounded=0;orthogonalLoop=1;jettySize=auto;html=1;entryX=-0.002;entryY=0.429;entryDx=0;entryDy=0;entryPerimeter=0;" edge="1" parent="1" source="27JABKe4xjO0IqMqAIFX-1" target="27JABKe4xjO0IqMqAIFX-22">
          <mxGeometry relative="1" as="geometry">
            <Array as="points">
              <mxPoint x="130" y="1230" />
              <mxPoint x="550" y="1230" />
              <mxPoint x="550" y="1433" />
            </Array>
          </mxGeometry>
        </mxCell>
        <mxCell id="27JABKe4xjO0IqMqAIFX-50" value="&lt;span style=&quot;text-wrap-mode: wrap; background-color: rgb(251, 251, 251);&quot;&gt;Расчет ставки депозита на основе уровня риска клиента&lt;/span&gt;" style="edgeLabel;html=1;align=center;verticalAlign=middle;resizable=0;points=[];" vertex="1" connectable="0" parent="27JABKe4xjO0IqMqAIFX-49">
          <mxGeometry x="-0.5112" y="3" relative="1" as="geometry">
            <mxPoint x="-33" y="-57" as="offset" />
          </mxGeometry>
        </mxCell>
        <mxCell id="27JABKe4xjO0IqMqAIFX-53" style="edgeStyle=orthogonalEdgeStyle;rounded=0;orthogonalLoop=1;jettySize=auto;html=1;entryX=0.425;entryY=0.002;entryDx=0;entryDy=0;entryPerimeter=0;" edge="1" parent="1" source="27JABKe4xjO0IqMqAIFX-2" target="27JABKe4xjO0IqMqAIFX-21">
          <mxGeometry relative="1" as="geometry" />
        </mxCell>
        <mxCell id="27JABKe4xjO0IqMqAIFX-54" value="&lt;span style=&quot;text-wrap-mode: wrap; background-color: rgb(251, 251, 251);&quot;&gt;Пишет письмо сотрудникам бэк-офис с запросом&amp;nbsp; ставки&lt;/span&gt;" style="edgeLabel;html=1;align=center;verticalAlign=middle;resizable=0;points=[];" vertex="1" connectable="0" parent="27JABKe4xjO0IqMqAIFX-53">
          <mxGeometry x="-0.0805" y="2" relative="1" as="geometry">
            <mxPoint x="114" y="-52" as="offset" />
          </mxGeometry>
        </mxCell>
        <mxCell id="27JABKe4xjO0IqMqAIFX-56" style="edgeStyle=orthogonalEdgeStyle;rounded=0;orthogonalLoop=1;jettySize=auto;html=1;" edge="1" parent="1" source="27JABKe4xjO0IqMqAIFX-1">
          <mxGeometry relative="1" as="geometry">
            <mxPoint x="-168" y="990" as="targetPoint" />
          </mxGeometry>
        </mxCell>
        <mxCell id="27JABKe4xjO0IqMqAIFX-57" value="&lt;span style=&quot;text-wrap-mode: wrap; background-color: rgb(251, 251, 251);&quot;&gt;&lt;font&gt;Отправляет размер ставки депозита для особых клиентов для сотрудников отделения&lt;/font&gt;&lt;/span&gt;" style="edgeLabel;html=1;align=center;verticalAlign=middle;resizable=0;points=[];" vertex="1" connectable="0" parent="27JABKe4xjO0IqMqAIFX-56">
          <mxGeometry x="0.0982" y="1" relative="1" as="geometry">
            <mxPoint as="offset" />
          </mxGeometry>
        </mxCell>
        <mxCell id="27JABKe4xjO0IqMqAIFX-59" style="edgeStyle=orthogonalEdgeStyle;rounded=0;orthogonalLoop=1;jettySize=auto;html=1;entryX=0.149;entryY=0.998;entryDx=0;entryDy=0;entryPerimeter=0;" edge="1" parent="1" source="27JABKe4xjO0IqMqAIFX-5" target="27JABKe4xjO0IqMqAIFX-21">
          <mxGeometry relative="1" as="geometry" />
        </mxCell>
        <mxCell id="27JABKe4xjO0IqMqAIFX-60" value="&lt;span style=&quot;text-wrap-mode: wrap; background-color: rgb(251, 251, 251);&quot;&gt;Отправляет размер ставки депозитита для базовых клиентов для бэк-&lt;/span&gt;&lt;div&gt;&lt;span style=&quot;text-wrap-mode: wrap; background-color: rgb(251, 251, 251);&quot;&gt;офис&lt;/span&gt;&lt;/div&gt;" style="edgeLabel;html=1;align=center;verticalAlign=middle;resizable=0;points=[];" vertex="1" connectable="0" parent="27JABKe4xjO0IqMqAIFX-59">
          <mxGeometry x="-0.3253" relative="1" as="geometry">
            <mxPoint x="-146" y="-100" as="offset" />
          </mxGeometry>
        </mxCell>
        <mxCell id="27JABKe4xjO0IqMqAIFX-62" value="&lt;span style=&quot;text-wrap-mode: wrap; background-color: rgb(251, 251, 251);&quot;&gt;Отправляет расчет уровня рисков специальных клиентов для бэк-офис&lt;/span&gt;" style="edgeLabel;html=1;align=center;verticalAlign=middle;resizable=0;points=[];" vertex="1" connectable="0" parent="27JABKe4xjO0IqMqAIFX-59">
          <mxGeometry x="-0.3716" y="-3" relative="1" as="geometry">
            <mxPoint x="-23" y="-97" as="offset" />
          </mxGeometry>
        </mxCell>
      </root>
    </mxGraphModel>
  </diagram>
</mxfile>
